# MagicaVoxel @ Ephtracy

# group
o 

# material
mtllib untitled.mtl
usemtl palette

# normals
vn -1 0 0
vn 1 0 0
vn 0 0 1
vn 0 0 -1
vn 0 -1 0
vn 0 1 0

# texcoords
vt 0.970703 0.5
vt 0.974609 0.5
vt 0.978516 0.5
vt 0.982422 0.5
vt 0.986328 0.5
vt 0.990234 0.5
vt 0.994141 0.5

# verts
v -2 0 2
v -2 0 -2
v -2 1.5 2
v -2 1.5 -2
v -1.7 1.4 0.5
v -1.7 1.4 -0.5
v -1.7 1.5 0.5
v -1.7 1.5 -0.5
v -1.4 1.4 1.5
v -1.4 1.4 -1.5
v -1.4 1.5 1.5
v -1.4 1.5 -1.5
v -0.9 1.4 1.1
v -0.9 1.4 1
v -0.9 1.4 -1
v -0.9 1.4 -1.1
v -0.9 1.5 1.1
v -0.9 1.5 1
v -0.9 1.5 -1
v -0.9 1.5 -1.1
v -0.6 1.4 0.6
v -0.6 1.4 -0.6
v -0.6 1.5 0.6
v -0.6 1.5 -0.6
v -0.5 1.4 1.7
v -0.5 1.4 1.6
v -0.5 1.4 -1.6
v -0.5 1.4 -1.7
v -0.5 1.5 1.7
v -0.5 1.5 1.6
v -0.5 1.5 -1.6
v -0.5 1.5 -1.7
v -0.4 1.4 0.3
v -0.4 1.4 0.2
v -0.4 1.4 -0.2
v -0.4 1.4 -0.3
v -0.4 1.5 0.3
v -0.4 1.5 0.2
v -0.4 1.5 -0.2
v -0.4 1.5 -0.3
v -0.3 1.4 0.6
v -0.3 1.4 0.5
v -0.3 1.4 -0.5
v -0.3 1.4 -0.6
v -0.3 1.5 0.6
v -0.3 1.5 0.5
v -0.3 1.5 -0.5
v -0.3 1.5 -0.6
v 0.2 1.4 0.3
v 0.2 1.4 0.2
v 0.2 1.4 -0.2
v 0.2 1.4 -0.3
v 0.2 1.5 0.3
v 0.2 1.5 0.2
v 0.2 1.5 -0.2
v 0.2 1.5 -0.3
v 0.5 1.4 0.6
v 0.5 1.4 -0.6
v 0.5 1.5 0.6
v 0.5 1.5 -0.6
v 1.3 1.4 1.5
v 1.3 1.4 -1.5
v 1.3 1.5 1.5
v 1.3 1.5 -1.5
v 1.6 1.4 0.5
v 1.6 1.4 -0.5
v 1.6 1.5 0.5
v 1.6 1.5 -0.5
v 1.8 1.4 1.8
v 1.8 1.4 -1.8
v 1.8 1.5 1.8
v 1.8 1.5 -1.8
v 1.9 0.1 1.9
v 1.9 0.1 1.8
v 1.9 0.1 -1.8
v 1.9 0.1 -1.9
v 1.9 1.3 1.8
v 1.9 1.3 -1.8
v 1.9 1.4 1.9
v 1.9 1.4 1.8
v 1.9 1.4 -1.8
v 1.9 1.4 -1.9
v -1.9 0.1 1.9
v -1.9 0.1 1.8
v -1.9 0.1 -1.8
v -1.9 0.1 -1.9
v -1.9 1.3 1.8
v -1.9 1.3 -1.8
v -1.9 1.4 1.9
v -1.9 1.4 1.8
v -1.9 1.4 -1.8
v -1.9 1.4 -1.9
v -1.8 1.4 1.8
v -1.8 1.4 -1.8
v -1.8 1.5 1.8
v -1.8 1.5 -1.8
v -1.6 1.4 0.5
v -1.6 1.4 -0.5
v -1.6 1.5 0.5
v -1.6 1.5 -0.5
v -1.3 1.4 1.5
v -1.3 1.4 -1.5
v -1.3 1.5 1.5
v -1.3 1.5 -1.5
v -0.5 1.4 0.6
v -0.5 1.4 -0.6
v -0.5 1.5 0.6
v -0.5 1.5 -0.6
v -0.2 1.4 0.3
v -0.2 1.4 0.2
v -0.2 1.4 -0.2
v -0.2 1.4 -0.3
v -0.2 1.5 0.3
v -0.2 1.5 0.2
v -0.2 1.5 -0.2
v -0.2 1.5 -0.3
v 0.3 1.4 0.6
v 0.3 1.4 0.5
v 0.3 1.4 -0.5
v 0.3 1.4 -0.6
v 0.3 1.5 0.6
v 0.3 1.5 0.5
v 0.3 1.5 -0.5
v 0.3 1.5 -0.6
v 0.4 1.4 0.3
v 0.4 1.4 0.2
v 0.4 1.4 -0.2
v 0.4 1.4 -0.3
v 0.4 1.5 0.3
v 0.4 1.5 0.2
v 0.4 1.5 -0.2
v 0.4 1.5 -0.3
v 0.5 1.4 1.7
v 0.5 1.4 1.6
v 0.5 1.4 -1.6
v 0.5 1.4 -1.7
v 0.5 1.5 1.7
v 0.5 1.5 1.6
v 0.5 1.5 -1.6
v 0.5 1.5 -1.7
v 0.6 1.4 0.6
v 0.6 1.4 -0.6
v 0.6 1.5 0.6
v 0.6 1.5 -0.6
v 0.9 1.4 1.1
v 0.9 1.4 1
v 0.9 1.4 -1
v 0.9 1.4 -1.1
v 0.9 1.5 1.1
v 0.9 1.5 1
v 0.9 1.5 -1
v 0.9 1.5 -1.1
v 1.4 1.4 1.5
v 1.4 1.4 -1.5
v 1.4 1.5 1.5
v 1.4 1.5 -1.5
v 1.7 1.4 0.5
v 1.7 1.4 -0.5
v 1.7 1.5 0.5
v 1.7 1.5 -0.5
v 2 0 2
v 2 0 -2
v 2 1.5 2
v 2 1.5 -2
v -2 0 2
v -2 1.5 2
v 2 0 2
v 2 1.5 2
v -1.9 0.1 1.8
v -1.9 1.3 1.8
v -1.9 1.4 1.8
v -1.8 1.3 1.8
v -1.8 1.4 1.8
v 1.8 1.3 1.8
v 1.8 1.4 1.8
v 1.9 0.1 1.8
v 1.9 1.3 1.8
v 1.9 1.4 1.8
v -0.5 1.4 1.7
v -0.5 1.5 1.7
v 0.5 1.4 1.7
v 0.5 1.5 1.7
v -1.4 1.4 1.5
v -1.4 1.5 1.5
v -1.3 1.4 1.5
v -1.3 1.5 1.5
v 1.3 1.4 1.5
v 1.3 1.5 1.5
v 1.4 1.4 1.5
v 1.4 1.5 1.5
v -0.9 1.4 1.1
v -0.9 1.5 1.1
v 0.9 1.4 1.1
v 0.9 1.5 1.1
v -0.6 1.4 0.6
v -0.6 1.5 0.6
v -0.5 1.4 0.6
v -0.5 1.5 0.6
v -0.3 1.4 0.6
v -0.3 1.5 0.6
v 0.3 1.4 0.6
v 0.3 1.5 0.6
v 0.5 1.4 0.6
v 0.5 1.5 0.6
v 0.6 1.4 0.6
v 0.6 1.5 0.6
v -1.7 1.4 0.5
v -1.7 1.5 0.5
v -1.6 1.4 0.5
v -1.6 1.5 0.5
v 1.6 1.4 0.5
v 1.6 1.5 0.5
v 1.7 1.4 0.5
v 1.7 1.5 0.5
v -0.4 1.4 0.3
v -0.4 1.5 0.3
v -0.2 1.4 0.3
v -0.2 1.5 0.3
v 0.2 1.4 0.3
v 0.2 1.5 0.3
v 0.4 1.4 0.3
v 0.4 1.5 0.3
v -0.4 1.4 -0.2
v -0.4 1.5 -0.2
v -0.2 1.4 -0.2
v -0.2 1.5 -0.2
v 0.2 1.4 -0.2
v 0.2 1.5 -0.2
v 0.4 1.4 -0.2
v 0.4 1.5 -0.2
v -0.3 1.4 -0.5
v -0.3 1.5 -0.5
v 0.3 1.4 -0.5
v 0.3 1.5 -0.5
v -0.9 1.4 -1
v -0.9 1.5 -1
v 0.9 1.4 -1
v 0.9 1.5 -1
v -0.5 1.4 -1.6
v -0.5 1.5 -1.6
v 0.5 1.4 -1.6
v 0.5 1.5 -1.6
v -1.8 1.4 -1.8
v -1.8 1.5 -1.8
v 1.8 1.4 -1.8
v 1.8 1.5 -1.8
v -1.9 0.1 -1.9
v -1.9 1.4 -1.9
v 1.9 0.1 -1.9
v 1.9 1.4 -1.9
v -1.9 0.1 1.9
v -1.9 1.4 1.9
v 1.9 0.1 1.9
v 1.9 1.4 1.9
v -1.8 1.4 1.8
v -1.8 1.5 1.8
v 1.8 1.4 1.8
v 1.8 1.5 1.8
v -0.5 1.4 1.6
v -0.5 1.5 1.6
v 0.5 1.4 1.6
v 0.5 1.5 1.6
v -0.9 1.4 1
v -0.9 1.5 1
v 0.9 1.4 1
v 0.9 1.5 1
v -0.3 1.4 0.5
v -0.3 1.5 0.5
v 0.3 1.4 0.5
v 0.3 1.5 0.5
v -0.4 1.4 0.2
v -0.4 1.5 0.2
v -0.2 1.4 0.2
v -0.2 1.5 0.2
v 0.2 1.4 0.2
v 0.2 1.5 0.2
v 0.4 1.4 0.2
v 0.4 1.5 0.2
v -0.4 1.4 -0.3
v -0.4 1.5 -0.3
v -0.2 1.4 -0.3
v -0.2 1.5 -0.3
v 0.2 1.4 -0.3
v 0.2 1.5 -0.3
v 0.4 1.4 -0.3
v 0.4 1.5 -0.3
v -1.7 1.4 -0.5
v -1.7 1.5 -0.5
v -1.6 1.4 -0.5
v -1.6 1.5 -0.5
v 1.6 1.4 -0.5
v 1.6 1.5 -0.5
v 1.7 1.4 -0.5
v 1.7 1.5 -0.5
v -0.6 1.4 -0.6
v -0.6 1.5 -0.6
v -0.5 1.4 -0.6
v -0.5 1.5 -0.6
v -0.3 1.4 -0.6
v -0.3 1.5 -0.6
v 0.3 1.4 -0.6
v 0.3 1.5 -0.6
v 0.5 1.4 -0.6
v 0.5 1.5 -0.6
v 0.6 1.4 -0.6
v 0.6 1.5 -0.6
v -0.9 1.4 -1.1
v -0.9 1.5 -1.1
v 0.9 1.4 -1.1
v 0.9 1.5 -1.1
v -1.4 1.4 -1.5
v -1.4 1.5 -1.5
v -1.3 1.4 -1.5
v -1.3 1.5 -1.5
v 1.3 1.4 -1.5
v 1.3 1.5 -1.5
v 1.4 1.4 -1.5
v 1.4 1.5 -1.5
v -0.5 1.4 -1.7
v -0.5 1.5 -1.7
v 0.5 1.4 -1.7
v 0.5 1.5 -1.7
v -1.9 0.1 -1.8
v -1.9 1.3 -1.8
v -1.9 1.4 -1.8
v -1.8 1.3 -1.8
v -1.8 1.4 -1.8
v 1.8 1.3 -1.8
v 1.8 1.4 -1.8
v 1.9 0.1 -1.8
v 1.9 1.3 -1.8
v 1.9 1.4 -1.8
v -2 0 -2
v -2 1.5 -2
v 2 0 -2
v 2 1.5 -2
v -2 0 2
v 2 0 2
v -2 0 -2
v 2 0 -2
v -1.9 1.4 1.9
v 1.9 1.4 1.9
v -1.9 1.4 1.8
v -1.8 1.4 1.8
v 1.8 1.4 1.8
v 1.9 1.4 1.8
v -1.9 1.4 -1.8
v -1.8 1.4 -1.8
v 1.8 1.4 -1.8
v 1.9 1.4 -1.8
v -1.9 1.4 -1.9
v 1.9 1.4 -1.9
v -1.9 0.1 1.9
v 1.9 0.1 1.9
v -1.9 0.1 1.8
v 1.9 0.1 1.8
v -1.9 0.1 -1.8
v 1.9 0.1 -1.8
v -1.9 0.1 -1.9
v 1.9 0.1 -1.9
v -1.8 1.4 1.8
v 1.8 1.4 1.8
v -0.5 1.4 1.7
v 0.5 1.4 1.7
v -0.5 1.4 1.6
v 0.5 1.4 1.6
v -1.4 1.4 1.5
v -1.3 1.4 1.5
v 1.3 1.4 1.5
v 1.4 1.4 1.5
v -0.9 1.4 1.1
v 0.9 1.4 1.1
v -0.9 1.4 1
v 0.9 1.4 1
v -0.6 1.4 0.6
v -0.5 1.4 0.6
v -0.3 1.4 0.6
v 0.3 1.4 0.6
v 0.5 1.4 0.6
v 0.6 1.4 0.6
v -1.7 1.4 0.5
v -1.6 1.4 0.5
v -0.3 1.4 0.5
v 0.3 1.4 0.5
v 1.6 1.4 0.5
v 1.7 1.4 0.5
v -0.4 1.4 0.3
v -0.2 1.4 0.3
v 0.2 1.4 0.3
v 0.4 1.4 0.3
v -0.4 1.4 0.2
v -0.2 1.4 0.2
v 0.2 1.4 0.2
v 0.4 1.4 0.2
v -0.4 1.4 -0.2
v -0.2 1.4 -0.2
v 0.2 1.4 -0.2
v 0.4 1.4 -0.2
v -0.4 1.4 -0.3
v -0.2 1.4 -0.3
v 0.2 1.4 -0.3
v 0.4 1.4 -0.3
v -1.7 1.4 -0.5
v -1.6 1.4 -0.5
v -0.3 1.4 -0.5
v 0.3 1.4 -0.5
v 1.6 1.4 -0.5
v 1.7 1.4 -0.5
v -0.6 1.4 -0.6
v -0.5 1.4 -0.6
v -0.3 1.4 -0.6
v 0.3 1.4 -0.6
v 0.5 1.4 -0.6
v 0.6 1.4 -0.6
v -0.9 1.4 -1
v 0.9 1.4 -1
v -0.9 1.4 -1.1
v 0.9 1.4 -1.1
v -1.4 1.4 -1.5
v -1.3 1.4 -1.5
v 1.3 1.4 -1.5
v 1.4 1.4 -1.5
v -0.5 1.4 -1.6
v 0.5 1.4 -1.6
v -0.5 1.4 -1.7
v 0.5 1.4 -1.7
v -1.8 1.4 -1.8
v 1.8 1.4 -1.8
v -2 1.5 2
v 2 1.5 2
v -1.8 1.5 1.8
v 1.8 1.5 1.8
v -0.5 1.5 1.7
v 0.5 1.5 1.7
v -0.5 1.5 1.6
v 0.5 1.5 1.6
v -1.4 1.5 1.5
v -1.3 1.5 1.5
v 1.3 1.5 1.5
v 1.4 1.5 1.5
v -0.9 1.5 1.1
v 0.9 1.5 1.1
v -0.9 1.5 1
v 0.9 1.5 1
v -0.6 1.5 0.6
v -0.5 1.5 0.6
v -0.3 1.5 0.6
v 0.3 1.5 0.6
v 0.5 1.5 0.6
v 0.6 1.5 0.6
v -1.7 1.5 0.5
v -1.6 1.5 0.5
v -0.3 1.5 0.5
v 0.3 1.5 0.5
v 1.6 1.5 0.5
v 1.7 1.5 0.5
v -0.4 1.5 0.3
v -0.2 1.5 0.3
v 0.2 1.5 0.3
v 0.4 1.5 0.3
v -0.4 1.5 0.2
v -0.2 1.5 0.2
v 0.2 1.5 0.2
v 0.4 1.5 0.2
v -0.4 1.5 -0.2
v -0.2 1.5 -0.2
v 0.2 1.5 -0.2
v 0.4 1.5 -0.2
v -0.4 1.5 -0.3
v -0.2 1.5 -0.3
v 0.2 1.5 -0.3
v 0.4 1.5 -0.3
v -1.7 1.5 -0.5
v -1.6 1.5 -0.5
v -0.3 1.5 -0.5
v 0.3 1.5 -0.5
v 1.6 1.5 -0.5
v 1.7 1.5 -0.5
v -0.6 1.5 -0.6
v -0.5 1.5 -0.6
v -0.3 1.5 -0.6
v 0.3 1.5 -0.6
v 0.5 1.5 -0.6
v 0.6 1.5 -0.6
v -0.9 1.5 -1
v 0.9 1.5 -1
v -0.9 1.5 -1.1
v 0.9 1.5 -1.1
v -1.4 1.5 -1.5
v -1.3 1.5 -1.5
v 1.3 1.5 -1.5
v 1.4 1.5 -1.5
v -0.5 1.5 -1.6
v 0.5 1.5 -1.6
v -0.5 1.5 -1.7
v 0.5 1.5 -1.7
v -1.8 1.5 -1.8
v 1.8 1.5 -1.8
v -2 1.5 -2
v 2 1.5 -2

# faces
f 3/7/1 2/7/1 1/7/1
f 4/7/1 2/7/1 3/7/1
f 7/1/1 6/1/1 5/1/1
f 8/1/1 6/1/1 7/1/1
f 11/6/1 10/6/1 9/6/1
f 12/6/1 10/6/1 11/6/1
f 17/4/1 14/4/1 13/4/1
f 18/4/1 14/4/1 17/4/1
f 19/4/1 16/4/1 15/4/1
f 20/4/1 16/4/1 19/4/1
f 23/3/1 22/3/1 21/3/1
f 24/3/1 22/3/1 23/3/1
f 29/1/1 26/1/1 25/1/1
f 30/1/1 26/1/1 29/1/1
f 31/1/1 28/1/1 27/1/1
f 32/1/1 28/1/1 31/1/1
f 37/1/1 34/1/1 33/1/1
f 38/1/1 34/1/1 37/1/1
f 39/1/1 36/1/1 35/1/1
f 40/1/1 36/1/1 39/1/1
f 45/2/1 42/2/1 41/2/1
f 46/2/1 42/2/1 45/2/1
f 47/2/1 44/2/1 43/2/1
f 48/2/1 44/2/1 47/2/1
f 53/1/1 50/1/1 49/1/1
f 54/1/1 50/1/1 53/1/1
f 55/1/1 52/1/1 51/1/1
f 56/1/1 52/1/1 55/1/1
f 59/3/1 58/3/1 57/3/1
f 60/3/1 58/3/1 59/3/1
f 63/6/1 62/6/1 61/6/1
f 64/6/1 62/6/1 63/6/1
f 67/1/1 66/1/1 65/1/1
f 68/1/1 66/1/1 67/1/1
f 71/7/1 70/7/1 69/7/1
f 72/7/1 70/7/1 71/7/1
f 77/7/1 74/7/1 73/7/1
f 78/7/1 76/7/1 75/7/1
f 79/7/1 77/7/1 73/7/1
f 80/7/1 77/7/1 79/7/1
f 81/7/1 76/7/1 78/7/1
f 82/7/1 76/7/1 81/7/1
f 83/7/2 84/7/2 87/7/2
f 85/7/2 86/7/2 88/7/2
f 83/7/2 87/7/2 89/7/2
f 89/7/2 87/7/2 90/7/2
f 88/7/2 86/7/2 91/7/2
f 91/7/2 86/7/2 92/7/2
f 93/7/2 94/7/2 95/7/2
f 95/7/2 94/7/2 96/7/2
f 97/1/2 98/1/2 99/1/2
f 99/1/2 98/1/2 100/1/2
f 101/6/2 102/6/2 103/6/2
f 103/6/2 102/6/2 104/6/2
f 105/3/2 106/3/2 107/3/2
f 107/3/2 106/3/2 108/3/2
f 109/1/2 110/1/2 113/1/2
f 113/1/2 110/1/2 114/1/2
f 111/1/2 112/1/2 115/1/2
f 115/1/2 112/1/2 116/1/2
f 117/2/2 118/2/2 121/2/2
f 121/2/2 118/2/2 122/2/2
f 119/2/2 120/2/2 123/2/2
f 123/2/2 120/2/2 124/2/2
f 125/1/2 126/1/2 129/1/2
f 129/1/2 126/1/2 130/1/2
f 127/1/2 128/1/2 131/1/2
f 131/1/2 128/1/2 132/1/2
f 133/1/2 134/1/2 137/1/2
f 137/1/2 134/1/2 138/1/2
f 135/1/2 136/1/2 139/1/2
f 139/1/2 136/1/2 140/1/2
f 141/3/2 142/3/2 143/3/2
f 143/3/2 142/3/2 144/3/2
f 145/4/2 146/4/2 149/4/2
f 149/4/2 146/4/2 150/4/2
f 147/4/2 148/4/2 151/4/2
f 151/4/2 148/4/2 152/4/2
f 153/6/2 154/6/2 155/6/2
f 155/6/2 154/6/2 156/6/2
f 157/1/2 158/1/2 159/1/2
f 159/1/2 158/1/2 160/1/2
f 161/7/2 162/7/2 163/7/2
f 163/7/2 162/7/2 164/7/2
f 167/7/3 166/7/3 165/7/3
f 168/7/3 166/7/3 167/7/3
f 172/7/3 170/7/3 169/7/3
f 172/5/3 171/5/3 170/5/3
f 173/5/3 171/5/3 172/5/3
f 174/7/3 172/7/3 169/7/3
f 174/1/3 173/1/3 172/1/3
f 175/1/3 173/1/3 174/1/3
f 176/7/3 174/7/3 169/7/3
f 177/5/3 175/5/3 174/5/3
f 177/7/3 174/7/3 176/7/3
f 178/5/3 175/5/3 177/5/3
f 181/1/3 180/1/3 179/1/3
f 182/1/3 180/1/3 181/1/3
f 185/6/3 184/6/3 183/6/3
f 186/6/3 184/6/3 185/6/3
f 189/6/3 188/6/3 187/6/3
f 190/6/3 188/6/3 189/6/3
f 193/4/3 192/4/3 191/4/3
f 194/4/3 192/4/3 193/4/3
f 197/3/3 196/3/3 195/3/3
f 198/3/3 196/3/3 197/3/3
f 201/2/3 200/2/3 199/2/3
f 202/2/3 200/2/3 201/2/3
f 205/3/3 204/3/3 203/3/3
f 206/3/3 204/3/3 205/3/3
f 209/1/3 208/1/3 207/1/3
f 210/1/3 208/1/3 209/1/3
f 213/1/3 212/1/3 211/1/3
f 214/1/3 212/1/3 213/1/3
f 217/1/3 216/1/3 215/1/3
f 218/1/3 216/1/3 217/1/3
f 221/1/3 220/1/3 219/1/3
f 222/1/3 220/1/3 221/1/3
f 225/1/3 224/1/3 223/1/3
f 226/1/3 224/1/3 225/1/3
f 229/1/3 228/1/3 227/1/3
f 230/1/3 228/1/3 229/1/3
f 233/2/3 232/2/3 231/2/3
f 234/2/3 232/2/3 233/2/3
f 237/4/3 236/4/3 235/4/3
f 238/4/3 236/4/3 237/4/3
f 241/1/3 240/1/3 239/1/3
f 242/1/3 240/1/3 241/1/3
f 245/7/3 244/7/3 243/7/3
f 246/7/3 244/7/3 245/7/3
f 249/7/3 248/7/3 247/7/3
f 250/7/3 248/7/3 249/7/3
f 251/7/4 252/7/4 253/7/4
f 253/7/4 252/7/4 254/7/4
f 255/7/4 256/7/4 257/7/4
f 257/7/4 256/7/4 258/7/4
f 259/1/4 260/1/4 261/1/4
f 261/1/4 260/1/4 262/1/4
f 263/4/4 264/4/4 265/4/4
f 265/4/4 264/4/4 266/4/4
f 267/2/4 268/2/4 269/2/4
f 269/2/4 268/2/4 270/2/4
f 271/1/4 272/1/4 273/1/4
f 273/1/4 272/1/4 274/1/4
f 275/1/4 276/1/4 277/1/4
f 277/1/4 276/1/4 278/1/4
f 279/1/4 280/1/4 281/1/4
f 281/1/4 280/1/4 282/1/4
f 283/1/4 284/1/4 285/1/4
f 285/1/4 284/1/4 286/1/4
f 287/1/4 288/1/4 289/1/4
f 289/1/4 288/1/4 290/1/4
f 291/1/4 292/1/4 293/1/4
f 293/1/4 292/1/4 294/1/4
f 295/3/4 296/3/4 297/3/4
f 297/3/4 296/3/4 298/3/4
f 299/2/4 300/2/4 301/2/4
f 301/2/4 300/2/4 302/2/4
f 303/3/4 304/3/4 305/3/4
f 305/3/4 304/3/4 306/3/4
f 307/4/4 308/4/4 309/4/4
f 309/4/4 308/4/4 310/4/4
f 311/6/4 312/6/4 313/6/4
f 313/6/4 312/6/4 314/6/4
f 315/6/4 316/6/4 317/6/4
f 317/6/4 316/6/4 318/6/4
f 319/1/4 320/1/4 321/1/4
f 321/1/4 320/1/4 322/1/4
f 323/7/4 324/7/4 326/7/4
f 324/5/4 325/5/4 326/5/4
f 326/5/4 325/5/4 327/5/4
f 323/7/4 326/7/4 328/7/4
f 326/1/4 327/1/4 328/1/4
f 328/1/4 327/1/4 329/1/4
f 323/7/4 328/7/4 330/7/4
f 328/5/4 329/5/4 331/5/4
f 330/7/4 328/7/4 331/7/4
f 331/5/4 329/5/4 332/5/4
f 333/7/4 334/7/4 335/7/4
f 335/7/4 334/7/4 336/7/4
f 339/7/5 338/7/5 337/7/5
f 340/7/5 338/7/5 339/7/5
f 343/7/5 342/7/5 341/7/5
f 344/7/5 342/7/5 343/7/5
f 345/7/5 342/7/5 344/7/5
f 346/7/5 342/7/5 345/7/5
f 351/7/5 348/7/5 347/7/5
f 351/7/5 350/7/5 349/7/5
f 351/7/5 349/7/5 348/7/5
f 352/7/5 350/7/5 351/7/5
f 353/7/6 354/7/6 355/7/6
f 355/7/6 354/7/6 356/7/6
f 357/7/6 358/7/6 359/7/6
f 359/7/6 358/7/6 360/7/6
f 361/1/6 362/1/6 363/1/6
f 363/1/6 362/1/6 364/1/6
f 361/1/6 363/1/6 365/1/6
f 364/1/6 362/1/6 366/1/6
f 361/1/6 365/1/6 367/1/6
f 365/1/6 366/1/6 367/1/6
f 367/1/6 366/1/6 368/1/6
f 366/1/6 362/1/6 369/1/6
f 368/1/6 366/1/6 369/1/6
f 369/1/6 362/1/6 370/1/6
f 368/1/6 369/1/6 371/1/6
f 371/1/6 369/1/6 372/1/6
f 368/1/6 371/1/6 373/1/6
f 372/1/6 369/1/6 374/1/6
f 373/1/6 374/1/6 375/1/6
f 375/1/6 374/1/6 376/1/6
f 376/1/6 374/1/6 377/1/6
f 377/1/6 374/1/6 378/1/6
f 378/1/6 374/1/6 379/1/6
f 379/1/6 374/1/6 380/1/6
f 361/1/6 367/1/6 381/1/6
f 381/1/6 367/1/6 382/1/6
f 376/1/6 377/1/6 383/1/6
f 378/1/6 379/1/6 384/1/6
f 370/1/6 362/1/6 385/1/6
f 385/1/6 362/1/6 386/1/6
f 383/1/6 384/1/6 387/1/6
f 376/1/6 383/1/6 387/1/6
f 387/1/6 384/1/6 388/1/6
f 388/1/6 384/1/6 389/1/6
f 384/1/6 379/1/6 390/1/6
f 389/1/6 384/1/6 390/1/6
f 376/1/6 387/1/6 391/1/6
f 388/1/6 389/1/6 392/1/6
f 392/1/6 389/1/6 393/1/6
f 390/1/6 379/1/6 394/1/6
f 376/1/6 391/1/6 395/1/6
f 393/1/6 394/1/6 395/1/6
f 392/1/6 393/1/6 395/1/6
f 391/1/6 392/1/6 395/1/6
f 395/1/6 394/1/6 396/1/6
f 396/1/6 394/1/6 397/1/6
f 394/1/6 379/1/6 398/1/6
f 397/1/6 394/1/6 398/1/6
f 376/1/6 395/1/6 399/1/6
f 396/1/6 397/1/6 400/1/6
f 400/1/6 397/1/6 401/1/6
f 398/1/6 379/1/6 402/1/6
f 361/1/6 381/1/6 403/1/6
f 382/1/6 367/1/6 404/1/6
f 401/1/6 402/1/6 405/1/6
f 400/1/6 401/1/6 405/1/6
f 399/1/6 400/1/6 405/1/6
f 405/1/6 402/1/6 406/1/6
f 370/1/6 385/1/6 407/1/6
f 386/1/6 362/1/6 408/1/6
f 373/1/6 375/1/6 409/1/6
f 376/1/6 399/1/6 410/1/6
f 399/1/6 405/1/6 410/1/6
f 410/1/6 405/1/6 411/1/6
f 406/1/6 402/1/6 412/1/6
f 402/1/6 379/1/6 413/1/6
f 412/1/6 402/1/6 413/1/6
f 380/1/6 374/1/6 414/1/6
f 412/1/6 413/1/6 415/1/6
f 413/1/6 414/1/6 415/1/6
f 368/1/6 373/1/6 415/1/6
f 410/1/6 411/1/6 415/1/6
f 373/1/6 409/1/6 415/1/6
f 409/1/6 410/1/6 415/1/6
f 411/1/6 412/1/6 415/1/6
f 414/1/6 374/1/6 416/1/6
f 415/1/6 414/1/6 416/1/6
f 374/1/6 369/1/6 416/1/6
f 368/1/6 415/1/6 417/1/6
f 416/1/6 369/1/6 418/1/6
f 403/1/6 404/1/6 419/1/6
f 404/1/6 367/1/6 419/1/6
f 368/1/6 417/1/6 420/1/6
f 417/1/6 418/1/6 420/1/6
f 418/1/6 369/1/6 421/1/6
f 420/1/6 418/1/6 421/1/6
f 370/1/6 407/1/6 422/1/6
f 407/1/6 408/1/6 422/1/6
f 420/1/6 421/1/6 423/1/6
f 421/1/6 422/1/6 423/1/6
f 419/1/6 420/1/6 423/1/6
f 423/1/6 422/1/6 424/1/6
f 419/1/6 423/1/6 425/1/6
f 424/1/6 422/1/6 426/1/6
f 403/1/6 419/1/6 427/1/6
f 425/1/6 426/1/6 427/1/6
f 361/1/6 403/1/6 427/1/6
f 419/1/6 425/1/6 427/1/6
f 422/1/6 408/1/6 428/1/6
f 427/1/6 426/1/6 428/1/6
f 426/1/6 422/1/6 428/1/6
f 408/1/6 362/1/6 428/1/6
f 429/7/6 430/7/6 431/7/6
f 431/7/6 430/7/6 432/7/6
f 433/1/6 434/1/6 435/1/6
f 435/1/6 434/1/6 436/1/6
f 441/4/6 442/4/6 443/4/6
f 443/4/6 442/4/6 444/4/6
f 447/2/6 448/2/6 453/2/6
f 453/2/6 448/2/6 454/2/6
f 457/1/6 458/1/6 461/1/6
f 461/1/6 458/1/6 462/1/6
f 459/1/6 460/1/6 463/1/6
f 463/1/6 460/1/6 464/1/6
f 465/1/6 466/1/6 469/1/6
f 469/1/6 466/1/6 470/1/6
f 467/1/6 468/1/6 471/1/6
f 471/1/6 468/1/6 472/1/6
f 451/1/6 452/1/6 473/1/6
f 473/1/6 452/1/6 474/1/6
f 455/1/6 456/1/6 477/1/6
f 477/1/6 456/1/6 478/1/6
f 445/3/6 446/3/6 479/3/6
f 479/3/6 446/3/6 480/3/6
f 475/2/6 476/2/6 481/2/6
f 481/2/6 476/2/6 482/2/6
f 449/3/6 450/3/6 483/3/6
f 483/3/6 450/3/6 484/3/6
f 485/4/6 486/4/6 487/4/6
f 487/4/6 486/4/6 488/4/6
f 437/6/6 438/6/6 489/6/6
f 489/6/6 438/6/6 490/6/6
f 439/6/6 440/6/6 491/6/6
f 491/6/6 440/6/6 492/6/6
f 493/1/6 494/1/6 495/1/6
f 495/1/6 494/1/6 496/1/6
f 429/7/6 431/7/6 497/7/6
f 432/7/6 430/7/6 498/7/6
f 429/7/6 497/7/6 499/7/6
f 497/7/6 498/7/6 499/7/6
f 498/7/6 430/7/6 500/7/6
f 499/7/6 498/7/6 500/7/6
